<svg stroke="none" fill="white" xmlns="http://www.w3.org/2000/svg" viewBox="0 0 86.09 96.64">
  <path d="M15.08 13.62v1.69l-4.14-2.39c.48-.02.97.02 1.46.12l2.68.58Z" />
  <path
    d="M15.08 13.62v69.4l-2.68.58c-.45.1-.91.14-1.36.13-1.78-.05-3.46-.91-4.54-2.39l-5.39-7.41c-1.42-1.96-1.48-4.59-.14-6.61l4.56-6.87c.26-.39.56-.75.9-1.05-1.03-3.49-1.57-7.15-1.57-10.88s.56-7.59 1.66-11.19c-.38-.33-.71-.72-.99-1.14L.97 29.32c-1.34-2.02-1.28-4.65.14-6.61L6.5 15.3c1.06-1.45 2.7-2.31 4.44-2.38.48-.02.97.02 1.46.12l2.68.58Zm57.23 34.73L30.2 72.67V24.04l42.11 24.31zm12.68 25.58-5.39 7.41c-1.34 1.85-3.66 2.74-5.9 2.26l-8.26-1.79c-.63-.13-1.21-.36-1.73-.68-2.23 1.41-4.6 2.57-7.06 3.47-.05.18-.1.36-.17.54l-2.88 7.73c-.85 2.27-3.01 3.77-5.44 3.77h-9.14c-2.3 0-4.38-1.35-5.31-3.45l-1.8-4.06 48.95-28.26 4.27 6.45c1.34 2.02 1.28 4.65-.14 6.61Zm.14-44.61-4.3 6.5L31.89 7.56l1.82-4.11C34.64 1.35 36.72 0 39.02 0h9.14c2.43 0 4.59 1.5 5.44 3.77l2.88 7.73c.12.32.21.65.28.98 2.31.85 4.53 1.93 6.63 3.23.6-.41 1.29-.72 2.05-.88l8.26-1.79c2.24-.48 4.56.41 5.9 2.26l5.39 7.41c1.42 1.96 1.48 4.59.14 6.61Z" />
</svg>